<?xml version="1.0" standalone="no"?>
<!DOCTYPE svg PUBLIC "-//W3C//DTD SVG 20010904//EN"
 "http://www.w3.org/TR/2001/REC-SVG-20010904/DTD/svg10.dtd">
<svg version="1.0" xmlns="http://www.w3.org/2000/svg"
 width="1000.000000pt" height="1000.000000pt" viewBox="0 0 1000.000000 1000.000000"
 preserveAspectRatio="xMidYMid meet">
<metadata>
Created by potrace 1.11, written by Peter Selinger 2001-2013
</metadata>
<g transform="translate(0.000000,1000.000000) scale(0.100000,-0.100000)"
fill="#000000" stroke="none">
<path d="M4370 8285 l0 -155 -310 0 -310 0 0 -160 0 -160 -155 0 -155 0 0
-155 0 -155 -160 0 -160 0 0 -625 0 -625 -155 0 -155 0 0 -155 0 -155 155 0
155 0 0 -155 0 -155 160 0 160 0 0 935 0 935 155 0 155 0 0 155 0 155 935 0
935 0 0 -155 0 -155 315 0 315 0 0 -310 0 -310 155 0 155 0 0 -160 0 -160
-155 0 -155 0 0 -155 0 -155 -1250 0 -1250 0 0 -470 0 -470 155 0 155 0 0
-155 0 -155 155 0 155 0 0 -155 0 -155 -155 0 -155 0 0 -315 0 -315 -155 0
-155 0 0 160 0 160 -155 0 -155 0 0 -315 0 -315 155 0 155 0 0 -155 0 -155
310 0 310 0 0 -155 0 -155 625 0 625 0 0 155 0 155 160 0 160 0 0 -315 0 -315
-160 0 -160 0 0 -155 0 -155 -155 0 -155 0 0 -310 0 -310 -155 0 -155 0 0
-160 0 -160 -155 0 -155 0 0 -155 0 -155 -470 0 -470 0 0 -155 0 -155 155 0
155 0 0 -155 0 -155 315 0 315 0 0 155 0 155 155 0 155 0 0 155 0 155 625 0
625 0 0 315 0 315 -155 0 -155 0 0 155 0 155 -160 0 -160 0 0 155 0 155 315 0
315 0 0 315 0 315 155 0 155 0 0 155 0 155 -155 0 -155 0 0 470 0 470 -155 0
-155 0 0 155 0 155 -160 0 -160 0 0 155 0 155 -625 0 -625 0 0 155 0 155 160
0 160 0 0 160 0 160 310 0 310 0 0 -160 0 -160 315 0 315 0 0 315 0 315 155 0
155 0 0 -155 0 -155 155 0 155 0 0 465 0 465 155 0 155 0 0 315 0 315 -155 0
-155 0 0 310 0 310 -155 0 -155 0 0 160 0 160 -155 0 -155 0 0 155 0 155 -785
0 -785 0 0 -155z m630 -4065 l0 -160 155 0 155 0 0 160 0 160 155 0 155 0 0
-160 0 -160 160 0 160 0 0 -155 0 -155 -940 0 -940 0 0 155 0 155 155 0 155 0
0 160 0 160 315 0 315 0 0 -160z"/>
<path d="M3440 2185 l0 -625 -160 0 -160 0 0 160 0 160 -155 0 -155 0 0 -160
0 -160 -155 0 -155 0 0 -155 0 -155 -155 0 -155 0 0 -155 0 -155 465 0 465 0
0 155 0 155 160 0 160 0 0 155 0 155 310 0 310 0 0 315 0 315 -155 0 -155 0 0
310 0 310 -155 0 -155 0 0 -625z"/>
<path d="M6870 2190 l0 -310 160 0 160 0 0 310 0 310 -160 0 -160 0 0 -310z"/>
</g>
</svg>
